<svg viewBox="0 0 753.09 132.79" xmlns="http://www.w3.org/2000/svg"><g fill="#fff"><path d="m171.86 37.4c-15.51 0-29.65 5.51-39.82 15.53a50.66 50.66 0 0 0 -15.18 36.36c0 26 18.44 43.5 45.87 43.5 15.51 0 29.65-5.51 39.82-15.53a50.66 50.66 0 0 0 15.18-36.36c0-26.02-18.43-43.5-45.87-43.5zm-6.75 68.77c-12 0-17.43-9.39-17.43-18.7 0-13.15 9.58-23.45 21.8-23.45 10.37 0 17.61 7.77 17.61 18.89 0 12.82-9.86 23.26-21.98 23.26z"/><path d="m287.88 85.13c-.85 7.86-4.31 21-18 21-4 0-6.95-1.08-8.95-3.29-2.84-3.13-3.82-8.55-3-16.55l4.32-41a5 5 0 0 0 -5-5.52h-20.38a5 5 0 0 0 -5 4.48l-5.13 48.92c-1.26 12.43-1 21.58 4.07 28.83 4.9 6.94 13.42 10.61 24.65 10.61 11.92 0 22.08-4.1 28.61-11.42l-.38 3.73a5 5 0 0 0 5 5.5h20.61a5 5 0 0 0 5-4.48l8.37-80.66a5 5 0 0 0 -5-5.51h-20.59a5 5 0 0 0 -5 4.48z"/><path d="m337 125.1 6.8-61.81h-9.4a5 5 0 0 1 -5-5.52l1.42-13.53a5 5 0 0 1 5-4.47h10.45l3.73-34.41a5 5 0 0 1 5-4.46h21.42a5 5 0 0 1 5 5.54l-3.62 33.33h11.44a5 5 0 0 1 5 5.52l-1.54 13.52a5 5 0 0 1 -5 4.48h-12.5l-5.62 62.8a5 5 0 0 1 -5 4.55h-22.7a5 5 0 0 1 -4.88-5.54z"/><path d="m468.71 49.42c-5.26-7.42-14.71-11.84-25.71-11.84-26.49 0-48 23.36-48 52.08 0 24.89 16.23 43 38.58 43 10.84 0 21-4.26 27.64-11.35l-.42 3.58a5 5 0 0 0 5 5.58h20.55a5 5 0 0 0 5-4.47l8.54-80.66a5 5 0 0 0 -5-5.52h-20.68a5 5 0 0 0 -5 4.49zm-3.53 33.49c0 12.82-9.86 23.26-22 23.26-10.37 0-17.61-7.69-17.61-18.7 0-12.93 9.86-23.45 22-23.45 10.37-.02 17.61 7.77 17.61 18.89z"/><path d="m569.73 37.58c-10.92 0-21.19 4.34-27.87 11.58l4.71-43.62a5 5 0 0 0 -5-5.54h-20.57a5 5 0 0 0 -5 4.47l-12.69 120.43a5 5 0 0 0 5 5.52h20.59a5 5 0 0 0 5-4.48l.52-5c4.43 6.15 12.94 11.67 25.88 11.67 26.5 0 48.07-23.36 48.07-52.08-.06-24.89-16.29-42.95-38.64-42.95zm7.75 45.33c0 12.82-9.86 23.26-22 23.26-10.26 0-17.43-7.69-17.43-18.7 0-12.93 9.78-23.45 21.81-23.45s17.62 9.79 17.62 18.89z"/><path d="m619 130.42h20.6a5 5 0 0 0 5-4.47l12.72-120.42a5 5 0 0 0 -5-5.53h-20.6a5 5 0 0 0 -5 4.47l-12.67 120.43a5 5 0 0 0 4.95 5.52z"/><path d="m709.77 37.4c-15.61 0-28.95 5.4-38.59 15.61-9 9.59-14 22.8-14 37.19 0 26.67 16.53 42.59 44.23 42.59 23.81 0 43.11-12.5 48-31.11a1.36 1.36 0 0 0 -1.32-1.71h-25.24a5.12 5.12 0 0 0 -4.22 2.12 19.29 19.29 0 0 1 -15.43 7.91c-5.51 0-9.63-1.41-12.26-4.19-2.28-2.42-3.53-6-3.73-10.53a2 2 0 0 1 2-2.07h59.44a2 2 0 0 0 2-1.52c.78-3.2 2.49-10.71 2.49-15.17-.05-23.4-17.46-39.12-43.37-39.12zm-18.16 37a2 2 0 0 1 -1.92-2.61c2.44-8.07 9.31-13.09 18.44-13.09 5 0 9 1.56 11.66 4.51a14.08 14.08 0 0 1 3.34 9.15 2 2 0 0 1 -2 2z"/><path d="m88 89.38c18.18-8.68 29.4-26.19 29.4-46.06 0-11.8-4-22.61-11.4-30.46-7.88-8.41-18.85-12.86-31.73-12.86h-50.36a5 5 0 0 0 -5 4.47l-4 37.83a78.82 78.82 0 0 0 8.59-.22 96 96 0 0 0 16.5-2.88c1.82-.49 3.59-1.06 5.35-1.66l1.76-16.8a1.18 1.18 0 0 1 1.89-.81l32.44 24.87a1.18 1.18 0 0 1 -.06 1.92l-37.69 24.87a1.18 1.18 0 0 1 -1.82-1.1l1.36-12.9a113.38 113.38 0 0 1 -19.75.22 98.24 98.24 0 0 1 -19.31-3.61c-.78-.22-1.55-.46-2.31-.7a1.42 1.42 0 0 0 -1.58 2.19l11.29 15.22-5.36 54a5 5 0 0 0 5 5.52h22.2a5 5 0 0 0 5-4.48l3-29.11a2 2 0 0 1 2-1.8h8.81a2 2 0 0 1 1.78 1.05l17 31.7a5 5 0 0 0 4.4 2.63h26.08a5 5 0 0 0 4.42-7.34z"/></g></svg>