<svg height="28" viewBox="0 0 162 28" width="162" xmlns="http://www.w3.org/2000/svg"><g fill="#1b2c48" fill-rule="evenodd"><path d="m36.9248276 7.87368421c-3.3323873 0-6.3704244 1.16-8.5554907 3.26947369-2.0967714 2.0158106-3.2730123 4.7764589-3.2614854 7.6547368 0 5.4736842 3.9619098 9.1578948 9.855358 9.1578948 3.3323873 0 6.3704245-1.16 8.5554908-3.2694737 2.0967713-2.0158106 3.2730122-4.776459 3.2614854-7.6547369 0-5.4778947-3.9597613-9.15789469-9.8553581-9.15789469zm-1.4502653 14.47789469c-2.5782493 0-3.7449071-1.9768421-3.7449071-3.9368421 0-2.768421 2.0583024-4.9368421 4.6838196-4.9368421 2.2280371 0 3.7835809 1.6357895 3.7835809 3.9768421 0 2.6989474-2.1184615 4.8968421-4.7224934 4.8968421z" fill-rule="nonzero"/><path d="m61.8522016 17.9221053c-.182626 1.6547368-.9260212 4.4210526-3.867374 4.4210526-.8594165 0-1.4932361-.2273684-1.9229443-.6926316-.6101857-.6589474-.8207427-1.8-.6445623-3.4842105l.9281697-8.63157896c.0317636-.29760195-.0672338-.59438589-.2722436-.8161577-.2050097-.2217718-.4966552-.34757063-.8020269-.34594756h-4.3787268c-.5522768-.00293372-1.0168411.40493137-1.0742706.94315789l-1.1022016 10.29894733c-.2707162 2.6168421-.2148541 4.5431579.8744563 6.0694737 1.0527851 1.4610527 2.8833421 2.2336842 5.2961538 2.2336842 2.561061 0 4.7439788-.8631579 6.1469761-2.4042105l-.0816445.7852632c-.0304585.2969157.0691284.592546.2739885.813353.2048601.2208069.4957394.3460379.800282.3445417h4.4281433c.5522767.0029337 1.016841-.4049314 1.0742705-.9431579l1.7983289-16.98105262c.0311102-.29725911-.0681825-.59346584-.2731172-.81475491-.2049348-.22128908-.4961966-.34680402-.8011533-.34524509h-4.4238462c-.5522768-.00293372-1.016841.40493137-1.0742705.94315789z"/><path d="m72.4058355 26.3368421 1.461008-13.0126316h-2.0196286c-.3053717.0016231-.5970173-.1241757-.802027-.3459475-.2050098-.2217718-.3040072-.5185558-.2722436-.8161577l.3050928-2.84842109c.0584551-.5373915.5227343-.94409646 1.0742706-.94105263h2.2452255l.8014058-7.24421053c.0594777-.53655631.5234729-.9421032 1.0742705-.93894737h4.6021751c.3062044-.00175553.5986211.12461074.8037817.34734983s.3035648.52067986.2704889.81896596l-.7777719 7.01684211h2.457931c.3053717-.00162307.5970172.12417576.802027.34594756.2050098.22177181.3040072.51855575.2722436.8161577l-.3308754 2.84631576c-.0574295.5382266-.5219937.9460916-1.0742705.9431579h-2.6856764l-1.2074801 13.2210527c-.0501716.5440671-.5167615.9601112-1.0742706.9578947h-4.8771883c-.3016999-.0053614-.5871885-.134806-.7866432-.3566751-.1994547-.2218692-.2944834-.515704-.2618449-.8096407z"/><path d="m100.704271 10.4042105c-1.1301331-1.56210524-3.1605044-2.49263155-5.5238996-2.49263155-5.6914855 0-10.3129974 4.91789475-10.3129974 10.96421055 0 5.24 3.4870822 9.0526316 8.2890716 9.0526316 2.3290186 0 4.5119364-.8968422 5.9385677-2.3894737l-.0902388.7536842c-.0357219.2996482.0614841.5999122.26695.8245933.2054658.2246811.4994403.3521809.8073205.3501435h4.415252c.551536.0030438 1.015816-.4036611 1.074271-.9410526l1.834854-16.98105264c.031763-.29760195-.067234-.5943859-.272244-.8161577s-.496655-.34757063-.802027-.34594757h-4.443183c-.553019-.00282551-1.017869.40620177-1.07427.94526316zm-.7584355 7.0505263c0 2.6989474-2.1184615 4.8968421-4.7267904 4.8968421-2.2280371 0-3.7835809-1.6189473-3.7835809-3.9368421 0-2.7221052 2.1184615-4.9368421 4.7267904-4.9368421 2.2280372-.0042105 3.7835809 1.6357895 3.7835809 3.9768421z" fill-rule="nonzero"/><path d="m122.408833 7.91157895c-2.346207 0-4.552759.91368421-5.987984 2.43789475l1.011963-9.18315791c.033076-.2982861-.065329-.59622687-.270489-.81896596-.205161-.22273909-.497578-.34910536-.803782-.34734983h-4.419549c-.551536-.00304383-1.015815.40366114-1.074271.94105263l-2.726498 25.35368417c-.031764.297602.067234.5943859.272243.8161577.20501.2217718.496656.3475707.802027.3459476h4.423847c.552276.0029337 1.016841-.4049314 1.07427-.9431579l.111724-1.0526316c.951804 1.2947369 2.780212 2.4568421 5.560425 2.4568421 5.693634 0 10.328037-4.9178947 10.328037-10.9642105-.012891-5.24-3.499974-9.04210525-8.301963-9.04210525zm1.665119 9.54315785c0 2.6989474-2.118461 4.8968421-4.72679 4.8968421-2.204403 0-3.744907-1.6189473-3.744907-3.9368421 0-2.7221052 2.101273-4.9368421 4.685968-4.9368421s3.785729 2.0610527 3.785729 3.9768421z" fill-rule="nonzero"/><path d="m132.994695 27.4568421h4.425995c.551536.0030438 1.015815-.4036611 1.07427-.9410526l2.732945-25.35157897c.032418-.29794428-.066283-.59530624-.271368-.81756138s-.497115-.34833775-.802903-.34664915h-4.425995c-.551536-.00304383-1.015815.40366114-1.07427.94105263l-2.722202 25.35368417c-.031567.2957776.066023.5908379.26865.8122451.202626.2214073.491377.3484993.794878.3498602z"/><path d="m152.497003 7.87368421c-3.353873 0-6.220027 1.13684211-8.291221 3.28631579-1.933687 2.0189474-3.007957 4.8-3.007957 7.8294737 0 5.6147368 3.551538 8.9663158 9.502997 8.9663158 5.115677 0 9.262361-2.631579 10.312998-6.5494737.023416-.0861487.004541-.178069-.051055-.2486407s-.141569-.1117403-.232553-.1113593h-5.422918c-.358384-.0048444-.696707.1616951-.906684.4463158-.773842 1.037887-2.00345 1.6555335-3.315199 1.6652631-1.183846 0-2.069045-.2968421-2.634111-.8821052-.489868-.5094737-.758435-1.2631579-.801406-2.2168421-.004082-.114201.039382-.2251229.120415-.3073022s.192673-.1285573.309293-.1284873h12.770929c.202262.0057742.38123-.1275018.429708-.32.167586-.6736842.534986-2.2547368.534986-3.1936842-.010742-4.9263158-3.751352-8.23578949-9.318222-8.23578949zm-3.901751 7.78947369c-.13781.001034-.267765-.062762-.349429-.1715383-.081665-.1087763-.105128-.2493325-.063091-.3779354.524244-1.6989474 2.000292-2.7557895 3.96191-2.7557895 1.07427 0 1.933687.3284211 2.505199.9494737.465475.538.719915 1.2210038.717613 1.9263158 0 .232541-.192387.4210526-.429709.4210526z" fill-rule="nonzero"/><path d="m18.9071618 18.8168421c3.9060477-1.8273684 6.3167109-5.5136842 6.3167109-9.6968421 0-2.48421053-.8594165-4.76-2.4493369-6.41263158-1.6930504-1.77052631-4.05-2.70736842-6.8173209-2.70736842h-10.8200531c-.55153632-.00304383-1.01581552.40366114-1.07427055.94105263l-.85941645 7.96421053c.61560077.01745581 1.23171502.00199424 1.84559682-.04631579 1.19746858-.10051537 2.38367989-.30339261 3.54509284-.60631579.39103448-.1031579.77132626-.2231579 1.14946949-.34947369l.37814325-3.5368421c.0098734-.089174.0680397-.1662075.1521793-.20154098.0841397-.03533348.181184-.02347898.253895.03101466l6.9698673 5.23578948c.0651536.04864377.102308.12513468.0997495.20535701-.0025584.08022234-.0445146.15429083-.1126407.19885351l-8.09785147 5.23578943c-.08155529.0522024-.18642301.0540011-.26979294.0046277-.08336994-.0493735-.13049617-.1411863-.12124155-.2362066l.2922016-2.7157895c-1.41038825.1363592-2.83023049.1518566-4.2433687.0463158-1.40538527-.1168718-2.79527662-.3714777-4.14883289-.76-.16758621-.0463158-.33302388-.0968421-.496313-.1473684-.12579983-.0395145-.26326211.0047927-.340555.1097686-.07729288.1049758-.07685473.2467688.0010855.351284l2.42570292 3.2042106-1.15161804 11.368421c-.03176361.297602.06723383.5943859.27224359.8161577s.49665527.3475706.80202697.3459476h4.76976127c.55227678.0029337 1.01684105-.4049314 1.07427056-.9431579l.64456233-6.1284211c.02214802-.2159584.20820306-.380035.42970823-.3789473h1.89286472c.1594656-.0015607.3066983.0835407.3824403.2210526l3.6525199 6.6736842c.1872521.3408418.5503114.553481.9453581.5536842h5.6033952c.3768422.0001003.726184-.1932865.9205849-.5096124s.2054324-.7093327.0290703-1.0356508z"/></g></svg>